<svg xmlns="http://www.w3.org/2000/svg" width="32" height="32" fill="none">
  <g clip-path="url(#a)">
    <path fill="#BA2031" fill-rule="evenodd" d="M8.847 8.362c-.835 0-1.67 0-2.503-.003-.186 0-.228.014-.228.224v4.87c0 .327-.314.698-.768.704l-1.58.016c-.435.002-.844-.32-.844-.79v-.476c0-.094-.026-.145-.147-.145H.144c-.11 0-.144.043-.144.156v.61c0 1.12 1.072 2.335 2.554 2.335h3.84c1.562 0 2.676-1.096 2.676-2.467V8.583c0-.189-.036-.22-.223-.22ZM26.697 8.195c2.416 0 4.468 1.078 5.252 2.586.147.282-.056.29-.226.29h-2.839c-.16 0-.25-.064-.347-.177-.42-.495-1.09-.817-1.843-.817-1.27 0-2.302.914-2.302 2.04s1.03 2.04 2.302 2.04c.745 0 1.406-.315 1.826-.799.105-.118.18-.193.361-.193h2.86c.2 0 .327.051.217.266-.77 1.519-2.837 2.61-5.264 2.61-3.084 0-5.585-1.758-5.585-3.924s2.504-3.922 5.588-3.922ZM15.205 10.905l-3.056 4.872c-.06.097-.07.097-.164.097H9.256c-.116 0-.175-.048-.093-.204l4.42-6.926c.183-.288.296-.352.598-.352h2.34c.352 0 .414.027.606.33l4.366 6.873c.164.276.175.276-.223.276h-2.334c-.313 0-.364-.059-.477-.242l-.627-1.007H13.91c-.246 0-.339.037-.234-.17l.795-1.293c.105-.204.139-.193.41-.193h1.91l-1.27-2.061c-.093-.194-.223-.18-.316 0Z" clip-rule="evenodd"/>
    <mask id="b" fill="#fff">
      <path d="M24.262 19.11v1.836h.909c.352 0 .637-.09.857-.27a.862.862 0 0 0 .33-.703.753.753 0 0 0-.301-.635c-.198-.153-.491-.228-.875-.228h-.92Zm3.581 4.61h-.909l-.988-1.444c-.197-.288-.378-.484-.541-.589a1.072 1.072 0 0 0-.59-.155h-.553v2.187h-.77v-5.198h1.817c.578 0 1.033.121 1.363.366.327.244.494.586.494 1.024 0 .72-.44 1.188-1.324 1.403v.019c.164.061.305.147.426.258.119.11.274.3.463.572l1.112 1.556ZM17.81 21.127c0 .63.184 1.132.553 1.51.367.38.85.57 1.443.57.635 0 1.137-.182 1.498-.545.364-.366.545-.873.545-1.527 0-.671-.178-1.188-.534-1.553-.355-.365-.84-.548-1.461-.548-.607 0-1.101.193-1.48.578-.374.387-.564.892-.564 1.515Zm-.807.054c0-.838.26-1.505.782-2.002.522-.495 1.225-.745 2.117-.745.83 0 1.495.242 2 .726.506.486.76 1.118.76 1.897 0 .842-.26 1.514-.78 2.008-.519.495-1.21.742-2.08.742-.846 0-1.526-.242-2.037-.728-.508-.487-.762-1.118-.762-1.898Zm-.11-2.064h-1.721v4.601h-.774v-4.601h-1.713v-.597h4.208v.597Zm-9.279 2.01c0 .63.184 1.132.553 1.51.367.38.85.57 1.442.57.635 0 1.138-.182 1.499-.545.361-.366.544-.873.544-1.527 0-.671-.177-1.188-.533-1.553-.355-.365-.84-.548-1.462-.548-.61 0-1.1.193-1.479.578-.372.387-.564.892-.564 1.515Zm-.807.054c0-.838.26-1.505.782-2.002.519-.495 1.224-.745 2.116-.745.83 0 1.496.242 2.001.726.505.486.76 1.118.76 1.897 0 .842-.26 1.514-.78 2.008-.519.495-1.21.742-2.08.742-.846 0-1.526-.242-2.037-.728-.505-.487-.762-1.118-.762-1.898ZM5.393 23.72v-3.443c0-.285.02-.623.057-1.02h-.02c-.068.249-.127.424-.178.523l-1.967 3.943h-.426L.897 19.806c-.048-.089-.107-.274-.177-.554H.697c.025.242.04.592.04 1.051v3.414H0V18.52h1.044l1.758 3.564c.133.274.223.487.266.637h.025c.133-.32.226-.537.282-.65l1.792-3.55h.994v5.197h-.768Zm23.034-1.01c.178.137.415.247.714.333.297.086.582.132.85.132.815 0 1.224-.253 1.224-.758a.59.59 0 0 0-.132-.382 1.233 1.233 0 0 0-.361-.3c-.153-.087-.44-.221-.861-.401-.584-.253-.968-.49-1.152-.704a1.111 1.111 0 0 1-.279-.745c0-.422.195-.755.581-1 .387-.247.878-.37 1.468-.37.578 0 1.002.058 1.273.182v.712c-.35-.21-.793-.317-1.33-.317-.355 0-.646.065-.869.196-.223.13-.336.31-.336.54 0 .205.08.371.235.503.155.13.49.304 1.01.527.57.24.97.476 1.197.715.228.236.341.505.341.8 0 .444-.183.785-.556 1.025-.37.239-.883.357-1.54.357-.23 0-.5-.03-.805-.083-.305-.054-.53-.124-.669-.207v-.755h-.003Z"/>
    </mask>
    <path fill="#383838" stroke="#181818" stroke-width="2" d="M24.262 19.11v1.836h.909c.352 0 .637-.09.857-.27a.862.862 0 0 0 .33-.703.753.753 0 0 0-.301-.635c-.198-.153-.491-.228-.875-.228h-.92Zm3.581 4.61h-.909l-.988-1.444c-.197-.288-.378-.484-.541-.589a1.072 1.072 0 0 0-.59-.155h-.553v2.187h-.77v-5.198h1.817c.578 0 1.033.121 1.363.366.327.244.494.586.494 1.024 0 .72-.44 1.188-1.324 1.403v.019c.164.061.305.147.426.258.119.11.274.3.463.572l1.112 1.556ZM17.81 21.127c0 .63.184 1.132.553 1.51.367.38.85.57 1.443.57.635 0 1.137-.182 1.498-.545.364-.366.545-.873.545-1.527 0-.671-.178-1.188-.534-1.553-.355-.365-.84-.548-1.461-.548-.607 0-1.101.193-1.48.578-.374.387-.564.892-.564 1.515Zm-.807.054c0-.838.26-1.505.782-2.002.522-.495 1.225-.745 2.117-.745.83 0 1.495.242 2 .726.506.486.76 1.118.76 1.897 0 .842-.26 1.514-.78 2.008-.519.495-1.21.742-2.08.742-.846 0-1.526-.242-2.037-.728-.508-.487-.762-1.118-.762-1.898Zm-.11-2.064h-1.721v4.601h-.774v-4.601h-1.713v-.597h4.208v.597Zm-9.279 2.01c0 .63.184 1.132.553 1.51.367.38.85.57 1.442.57.635 0 1.138-.182 1.499-.545.361-.366.544-.873.544-1.527 0-.671-.177-1.188-.533-1.553-.355-.365-.84-.548-1.462-.548-.61 0-1.1.193-1.479.578-.372.387-.564.892-.564 1.515Zm-.807.054c0-.838.26-1.505.782-2.002.519-.495 1.224-.745 2.116-.745.83 0 1.496.242 2.001.726.505.486.76 1.118.76 1.897 0 .842-.26 1.514-.78 2.008-.519.495-1.21.742-2.08.742-.846 0-1.526-.242-2.037-.728-.505-.487-.762-1.118-.762-1.898ZM5.393 23.72v-3.443c0-.285.02-.623.057-1.02h-.02c-.068.249-.127.424-.178.523l-1.967 3.943h-.426L.897 19.806c-.048-.089-.107-.274-.177-.554H.697c.025.242.04.592.04 1.051v3.414H0V18.52h1.044l1.758 3.564c.133.274.223.487.266.637h.025c.133-.32.226-.537.282-.65l1.792-3.55h.994v5.197h-.768Zm23.034-1.01c.178.137.415.247.714.333.297.086.582.132.85.132.815 0 1.224-.253 1.224-.758a.59.59 0 0 0-.132-.382 1.233 1.233 0 0 0-.361-.3c-.153-.087-.44-.221-.861-.401-.584-.253-.968-.49-1.152-.704a1.111 1.111 0 0 1-.279-.745c0-.422.195-.755.581-1 .387-.247.878-.37 1.468-.37.578 0 1.002.058 1.273.182v.712c-.35-.21-.793-.317-1.33-.317-.355 0-.646.065-.869.196-.223.13-.336.31-.336.54 0 .205.08.371.235.503.155.13.49.304 1.01.527.57.24.97.476 1.197.715.228.236.341.505.341.8 0 .444-.183.785-.556 1.025-.37.239-.883.357-1.54.357-.23 0-.5-.03-.805-.083-.305-.054-.53-.124-.669-.207v-.755h-.003Z" mask="url(#b)"/>
  </g>
  <defs>
    <clipPath id="a">
      <path fill="#fff" d="M0 0h32v32H0z"/>
    </clipPath>
  </defs>
</svg>
