<svg xmlns="http://www.w3.org/2000/svg" width="216" height="22" fill="none">
  <g clip-path="url(#a)">
    <path fill="#9D2D3A" fill-rule="evenodd" d="M23.332.467c-2.201 0-4.403-.003-6.605-.006-.488 0-.6.036-.6.624v13.659c0 .922-.825 1.965-2.024 1.977l-4.166.045a2.21 2.21 0 0 1-2.225-2.218v-1.335c0-.262-.071-.407-.39-.407H.381c-.289 0-.381.12-.381.434v1.709c0 3.14 2.83 6.55 6.736 6.55h10.125c4.115 0 7.054-3.07 7.054-6.918V1.085c0-.525-.095-.618-.583-.618ZM70.396 0c6.37 0 11.782 3.025 13.847 7.25.39.795-.146.817-.592.817h-7.486c-.426 0-.664-.181-.914-.492-1.106-1.389-2.87-2.29-4.858-2.29-3.35 0-6.07 2.562-6.07 5.716 0 3.158 2.717 5.72 6.07 5.72 1.963 0 3.707-.88 4.817-2.242.27-.335.479-.543.952-.543h7.536c.524 0 .863.142.574.75-2.029 4.262-7.48 7.317-13.88 7.317-8.13 0-14.727-4.927-14.727-11.002C55.668 4.928 62.265 0 70.395 0ZM40.095 7.597l-8.057 13.662c-.155.271-.185.271-.432.271h-7.203c-.306 0-.461-.136-.247-.576l11.66-19.411c.488-.81.783-.991 1.58-.991h6.17c.93 0 1.093.078 1.602.928l11.508 19.273c.431.777.461.777-.583.777h-6.159c-.83 0-.958-.166-1.259-.675l-1.648-2.826h-10.35c-.647 0-.894.102-.617-.474l2.095-3.621c.276-.573.369-.54 1.077-.54h5.037L40.925 7.6c-.241-.543-.583-.51-.83-.003Z" clip-rule="evenodd"/>
    <path fill="#181818" d="M186.431 2.742v7.455h3.47c1.344 0 2.433-.362 3.272-1.088.839-.726 1.262-1.684 1.262-2.862 0-1.103-.387-1.96-1.152-2.58-.761-.618-1.877-.925-3.338-.925h-3.514Zm13.69 18.728h-3.47l-3.781-5.864c-.753-1.172-1.446-1.968-2.074-2.393-.628-.422-1.375-.632-2.249-.632h-2.119v8.886h-2.942V.356h6.944c2.214 0 3.951.494 5.207 1.485 1.255.991 1.883 2.378 1.883 4.158 0 2.926-1.687 4.825-5.061 5.696v.069c.628.247 1.17.597 1.628 1.052.455.451 1.044 1.229 1.773 2.332l4.261 6.322Zm-38.334-10.526c0 2.555.702 4.601 2.115 6.141 1.405 1.54 3.243 2.314 5.508 2.314 2.431 0 4.344-.738 5.727-2.214 1.387-1.48 2.08-3.547 2.08-6.199 0-2.727-.679-4.83-2.035-6.31-1.36-1.485-3.217-2.223-5.582-2.223-2.324 0-4.207.78-5.647 2.344-1.443 1.564-2.166 3.61-2.166 6.147Zm-3.085.22c0-3.405.993-6.12 2.987-8.139C163.676 1.01 166.372 0 169.776 0c3.168 0 5.718.985 7.646 2.956 1.934 1.974 2.901 4.541 2.901 7.705 0 3.423-.994 6.141-2.972 8.154-1.985 2.004-4.63 3.01-7.944 3.01-3.237 0-5.829-.985-7.781-2.959-1.951-1.97-2.924-4.538-2.924-7.702Zm-.417-8.386h-6.572V21.47h-2.958V2.778h-6.545V.356h16.075v2.422Zm-35.448 8.166c0 2.555.703 4.601 2.113 6.141 1.404 1.54 3.243 2.314 5.507 2.314 2.431 0 4.344-.738 5.731-2.214 1.383-1.48 2.076-3.547 2.076-6.199 0-2.727-.678-4.83-2.032-6.31-1.359-1.485-3.216-2.223-5.581-2.223-2.324 0-4.207.78-5.647 2.344-1.441 1.564-2.167 3.61-2.167 6.147Zm-3.088.22c0-3.405.994-6.12 2.987-8.139C124.727 1.01 127.422 0 130.826 0c3.166 0 5.719.985 7.647 2.956 1.934 1.974 2.901 4.541 2.901 7.705 0 3.423-.994 6.141-2.973 8.154-1.984 2.004-4.629 3.01-7.944 3.01-3.237 0-5.828-.985-7.78-2.959-1.952-1.97-2.928-4.538-2.928-7.702Zm-5.403 10.306V7.482c0-1.154.074-2.54.22-4.155h-.071c-.256 1.015-.482 1.726-.679 2.127l-7.515 16.016h-1.631L97.173 5.575c-.182-.362-.408-1.112-.679-2.248h-.089c.098.982.152 2.404.152 4.276V21.47h-2.812V.356h3.987l6.724 14.475c.506 1.112.848 1.974 1.015 2.592h.101c.512-1.299.869-2.182 1.074-2.643L113.489.356h3.791V21.47h-2.934Zm88.003-4.101c.681.554 1.586 1.003 2.725 1.356 1.137.355 2.217.53 3.241.53 3.112 0 4.674-1.025 4.674-3.08a2.58 2.58 0 0 0-.503-1.555c-.333-.46-.794-.864-1.375-1.226-.583-.353-1.678-.898-3.284-1.633-2.229-1.025-3.696-1.983-4.401-2.863a4.694 4.694 0 0 1-1.062-3.025c0-1.712.738-3.068 2.223-4.065 1.481-1.003 3.353-1.5 5.608-1.5 2.208 0 3.826.243 4.862.744v2.895c-1.342-.858-3.029-1.29-5.076-1.29-1.36 0-2.467.263-3.324.793-.851.528-1.282 1.257-1.282 2.197 0 .835.298 1.513.89 2.037.592.521 1.88 1.235 3.859 2.136 2.177.968 3.704 1.935 4.57 2.9.871.966 1.306 2.051 1.306 3.256 0 1.805-.705 3.194-2.125 4.162-1.413.967-3.377 1.446-5.894 1.446-.874 0-1.904-.114-3.073-.34-1.169-.223-2.026-.504-2.559-.844v-3.031Z"/>
  </g>
  <defs>
    <clipPath id="a">
      <path fill="#fff" d="M0 0h216v22H0z"/>
    </clipPath>
  </defs>
</svg>
