<svg xmlns="http://www.w3.org/2000/svg" width="41" height="20" fill="none">
  <path fill="#BA2031" fill-rule="evenodd" d="M11.336.214c-1.07 0-2.14 0-3.208-.004-.238 0-.292.017-.292.286v6.24c0 .42-.402.895-.984.902l-2.025.02c-.557.004-1.081-.41-1.081-1.012v-.61c0-.12-.033-.185-.188-.185H.184c-.14 0-.184.055-.184.2v.781c0 1.436 1.374 2.992 3.272 2.992h4.921c2 0 3.428-1.405 3.428-3.16V.495c0-.241-.047-.282-.285-.282ZM34.206 0c3.095 0 5.724 1.38 6.73 3.313.187.361-.073.372-.29.372h-3.638c-.206 0-.321-.083-.444-.228-.539-.633-1.396-1.047-2.361-1.047-1.628 0-2.95 1.171-2.95 2.614 0 1.443 1.319 2.614 2.95 2.614.954 0 1.8-.403 2.34-1.023.133-.152.23-.248.462-.248h3.663c.257 0 .42.066.278.341-.987 1.946-3.634 3.344-6.743 3.344-3.953 0-7.156-2.252-7.156-5.028C27.047 2.25 30.254 0 34.207 0ZM19.482 3.471l-3.916 6.243c-.076.124-.09.124-.21.124h-3.497c-.148 0-.224-.062-.119-.262L17.402.702c.235-.368.38-.45.767-.45h2.998c.452 0 .531.034.777.423l5.594 8.805c.21.355.224.355-.286.355h-2.99c-.402 0-.467-.076-.611-.31l-.803-1.292h-5.026c-.315 0-.434.049-.3-.217l1.02-1.656c.133-.262.177-.248.524-.248h2.448l-1.627-2.641c-.12-.248-.286-.23-.405 0Z" clip-rule="evenodd"/>
  <mask id="a" fill="#fff">
    <path d="M31.085 13.984v2.352h1.165c.452 0 .817-.114 1.099-.344.282-.228.423-.53.423-.903 0-.347-.13-.616-.387-.812-.253-.196-.63-.293-1.12-.293h-1.18Zm4.589 5.906H34.51l-1.266-1.85c-.253-.368-.484-.62-.694-.753-.21-.135-.463-.2-.756-.2h-.709v2.803h-.987v-6.66h2.329c.741 0 1.323.155 1.746.468.42.314.633.751.633 1.312 0 .923-.564 1.522-1.696 1.798v.024c.21.08.39.19.546.33.152.142.351.386.593.734l1.425 1.994ZM22.82 16.57c0 .806.235 1.45.708 1.936.47.485 1.089.73 1.848.73.813 0 1.457-.235 1.92-.7.466-.468.698-1.119.698-1.955 0-.861-.228-1.522-.684-1.99-.455-.47-1.077-.703-1.873-.703-.777 0-1.41.248-1.894.74-.481.496-.723 1.143-.723 1.942Zm-1.035.07c0-1.075.333-1.93 1.002-2.566.669-.634 1.57-.954 2.712-.954 1.063 0 1.916.31 2.564.93.647.623.972 1.432.972 2.43 0 1.078-.332 1.94-.998 2.573-.665.634-1.551.95-2.665.95-1.084 0-1.956-.31-2.61-.933-.651-.623-.977-1.432-.977-2.43Zm-.14-2.646h-2.206v5.896h-.991v-5.896h-2.195v-.764h5.391v.764ZM9.754 16.57c0 .806.236 1.45.71 1.936.47.485 1.088.73 1.847.73.814 0 1.457-.235 1.92-.7.463-.468.698-1.119.698-1.955 0-.861-.228-1.522-.684-1.99-.455-.47-1.077-.703-1.873-.703-.78 0-1.41.248-1.894.74-.478.496-.723 1.143-.723 1.942Zm-1.034.07c0-1.075.333-1.93 1.002-2.566.665-.634 1.57-.954 2.712-.954 1.063 0 1.916.31 2.563.93.648.623.973 1.432.973 2.43 0 1.078-.332 1.94-.998 2.573-.665.634-1.551.95-2.665.95-1.084 0-1.956-.31-2.61-.933-.648-.623-.977-1.432-.977-2.43ZM6.91 19.89v-4.411c0-.365.025-.8.072-1.309h-.025c-.087.32-.163.544-.228.672l-2.52 5.051h-.546L1.15 14.876c-.062-.114-.138-.351-.228-.71H.893c.033.31.05.758.05 1.347v4.373H0V13.23h1.338l2.253 4.566c.17.351.285.623.34.816h.032c.17-.41.29-.688.362-.833L6.62 13.23h1.272v6.66H6.91Zm29.512-1.295c.228.176.532.317.915.427.38.11.745.169 1.088.169 1.046 0 1.57-.324 1.57-.971a.757.757 0 0 0-.17-.49 1.581 1.581 0 0 0-.463-.385c-.195-.11-.564-.282-1.103-.513-.748-.324-1.24-.627-1.475-.902a1.424 1.424 0 0 1-.358-.954c0-.54.25-.968.745-1.281.495-.317 1.124-.475 1.88-.475.741 0 1.284.075 1.63.234v.912c-.448-.268-1.015-.406-1.702-.406-.456 0-.828.083-1.114.251-.286.166-.43.396-.43.693 0 .261.101.475.3.643.199.166.63.39 1.294.675.73.307 1.244.61 1.533.916.293.303.438.648.438 1.027 0 .568-.235 1.005-.712 1.312-.474.306-1.132.458-1.975.458-.293 0-.64-.038-1.03-.107-.39-.07-.68-.159-.857-.265v-.968h-.004Z"/>
  </mask>
  <path fill="#383838" stroke="#fff" stroke-width="2" d="M31.085 13.984v2.352h1.165c.452 0 .817-.114 1.099-.344.282-.228.423-.53.423-.903 0-.347-.13-.616-.387-.812-.253-.196-.63-.293-1.12-.293h-1.18Zm4.589 5.906H34.51l-1.266-1.85c-.253-.368-.484-.62-.694-.753-.21-.135-.463-.2-.756-.2h-.709v2.803h-.987v-6.66h2.329c.741 0 1.323.155 1.746.468.42.314.633.751.633 1.312 0 .923-.564 1.522-1.696 1.798v.024c.21.08.39.19.546.33.152.142.351.386.593.734l1.425 1.994ZM22.82 16.57c0 .806.235 1.45.708 1.936.47.485 1.089.73 1.848.73.813 0 1.457-.235 1.92-.7.466-.468.698-1.119.698-1.955 0-.861-.228-1.522-.684-1.99-.455-.47-1.077-.703-1.873-.703-.777 0-1.41.248-1.894.74-.481.496-.723 1.143-.723 1.942Zm-1.035.07c0-1.075.333-1.93 1.002-2.566.669-.634 1.57-.954 2.712-.954 1.063 0 1.916.31 2.564.93.647.623.972 1.432.972 2.43 0 1.078-.332 1.94-.998 2.573-.665.634-1.551.95-2.665.95-1.084 0-1.956-.31-2.61-.933-.651-.623-.977-1.432-.977-2.43Zm-.14-2.646h-2.206v5.896h-.991v-5.896h-2.195v-.764h5.391v.764ZM9.754 16.57c0 .806.236 1.45.71 1.936.47.485 1.088.73 1.847.73.814 0 1.457-.235 1.92-.7.463-.468.698-1.119.698-1.955 0-.861-.228-1.522-.684-1.99-.455-.47-1.077-.703-1.873-.703-.78 0-1.41.248-1.894.74-.478.496-.723 1.143-.723 1.942Zm-1.034.07c0-1.075.333-1.93 1.002-2.566.665-.634 1.57-.954 2.712-.954 1.063 0 1.916.31 2.563.93.648.623.973 1.432.973 2.43 0 1.078-.332 1.94-.998 2.573-.665.634-1.551.95-2.665.95-1.084 0-1.956-.31-2.61-.933-.648-.623-.977-1.432-.977-2.43ZM6.91 19.89v-4.411c0-.365.025-.8.072-1.309h-.025c-.087.32-.163.544-.228.672l-2.52 5.051h-.546L1.15 14.876c-.062-.114-.138-.351-.228-.71H.893c.033.31.05.758.05 1.347v4.373H0V13.23h1.338l2.253 4.566c.17.351.285.623.34.816h.032c.17-.41.29-.688.362-.833L6.62 13.23h1.272v6.66H6.91Zm29.512-1.295c.228.176.532.317.915.427.38.11.745.169 1.088.169 1.046 0 1.57-.324 1.57-.971a.757.757 0 0 0-.17-.49 1.581 1.581 0 0 0-.463-.385c-.195-.11-.564-.282-1.103-.513-.748-.324-1.24-.627-1.475-.902a1.424 1.424 0 0 1-.358-.954c0-.54.25-.968.745-1.281.495-.317 1.124-.475 1.88-.475.741 0 1.284.075 1.63.234v.912c-.448-.268-1.015-.406-1.702-.406-.456 0-.828.083-1.114.251-.286.166-.43.396-.43.693 0 .261.101.475.3.643.199.166.63.39 1.294.675.73.307 1.244.61 1.533.916.293.303.438.648.438 1.027 0 .568-.235 1.005-.712 1.312-.474.306-1.132.458-1.975.458-.293 0-.64-.038-1.03-.107-.39-.07-.68-.159-.857-.265v-.968h-.004Z" mask="url(#a)"/>
</svg>
