<svg xmlns="http://www.w3.org/2000/svg" width="100" height="10" fill="none">
  <g fill="#fff" clip-path="url(#a)">
    <path fill-rule="evenodd" d="M10.802.212 7.744.21c-.226 0-.278.016-.278.283v6.209c0 .419-.382.893-.937.898l-1.928.02c-.53.006-1.03-.409-1.03-1.007v-.607c0-.12-.034-.185-.181-.185H.176c-.133 0-.176.055-.176.197v.777c0 1.427 1.31 2.978 3.119 2.978h4.687c1.905 0 3.266-1.396 3.266-3.145V.493c0-.238-.044-.28-.27-.28ZM32.59 0c2.948 0 5.454 1.375 6.41 3.295.18.362-.068.372-.274.372H35.26c-.197 0-.307-.083-.423-.224-.512-.631-1.329-1.04-2.25-1.04-1.55 0-2.81 1.164-2.81 2.598 0 1.435 1.258 2.6 2.81 2.6.91 0 1.717-.4 2.231-1.02.125-.152.222-.246.44-.246h3.49c.242 0 .4.064.266.34-.94 1.938-3.463 3.326-6.426 3.326-3.765 0-6.819-2.239-6.819-5C25.771 2.239 28.826 0 32.59 0ZM18.562 3.453l-3.73 6.21c-.072.123-.086.123-.2.123h-3.335c-.142 0-.213-.061-.114-.261L16.58.7c.226-.368.362-.45.731-.45h2.857c.43 0 .506.035.741.421l5.328 8.76c.2.354.214.354-.27.354h-2.851c-.384 0-.444-.075-.583-.307l-.763-1.284H16.98c-.299 0-.413.046-.285-.215l.97-1.647c.128-.26.17-.245.498-.245h2.332l-1.548-2.634c-.112-.246-.27-.231-.384-.001Z" clip-rule="evenodd"/>
    <path d="M86.313 1.246v3.389h1.606c.622 0 1.127-.164 1.515-.494.388-.33.584-.766.584-1.302 0-.501-.18-.89-.533-1.172-.353-.28-.87-.42-1.546-.42h-1.626ZM92.65 9.76h-1.606l-1.75-2.665c-.35-.533-.67-.895-.96-1.088-.291-.192-.637-.288-1.042-.288h-.98v4.04h-1.363V.162h3.215c1.025 0 1.83.224 2.41.675.582.45.872 1.08.872 1.89 0 1.33-.78 2.193-2.343 2.589v.031a2.2 2.2 0 0 1 .754.478c.21.206.483.56.82 1.06L92.65 9.76ZM74.903 4.975c0 1.161.325 2.091.98 2.791.65.7 1.501 1.052 2.55 1.052 1.125 0 2.01-.336 2.65-1.007.643-.672.964-1.612.964-2.817 0-1.24-.314-2.196-.942-2.868-.63-.676-1.49-1.011-2.585-1.011-1.075 0-1.947.355-2.614 1.066-.668.71-1.003 1.64-1.003 2.794Zm-1.428.1c0-1.548.46-2.782 1.383-3.7C75.778.46 77.026 0 78.602 0c1.467 0 2.647.448 3.54 1.344.895.897 1.343 2.064 1.343 3.502 0 1.556-.46 2.791-1.376 3.706-.92.911-2.144 1.369-3.678 1.369-1.499 0-2.699-.448-3.602-1.345-.904-.896-1.354-2.063-1.354-3.501Zm-.193-3.812h-3.043v8.496H68.87V1.263h-3.03V.162h7.442v1.1ZM56.871 4.975c0 1.161.325 2.091.978 2.791.65.7 1.501 1.052 2.55 1.052 1.125 0 2.01-.336 2.653-1.007.64-.672.961-1.612.961-2.817 0-1.24-.314-2.196-.94-2.868-.63-.676-1.49-1.011-2.585-1.011-1.076 0-1.947.355-2.614 1.066-.667.71-1.003 1.64-1.003 2.794Zm-1.43.1c0-1.548.46-2.782 1.383-3.7C57.746.46 58.994 0 60.57 0c1.466 0 2.648.448 3.54 1.344.896.897 1.344 2.064 1.344 3.502 0 1.556-.46 2.791-1.377 3.706-.918.911-2.143 1.369-3.677 1.369-1.499 0-2.699-.448-3.602-1.345-.904-.896-1.356-2.063-1.356-3.501ZM52.94 9.759V3.4c0-.525.034-1.155.102-1.889h-.033c-.119.462-.224.785-.314.967l-3.48 7.28h-.755l-3.47-7.225c-.085-.164-.19-.506-.315-1.022h-.041c.045.447.07 1.093.07 1.944v6.303h-1.302V.162h1.846l3.113 6.58c.234.505.393.897.47 1.177h.047c.237-.59.402-.991.497-1.2L52.543.161h1.755v9.597H52.94Zm40.742-1.864c.315.252.734.456 1.262.616a5.108 5.108 0 0 0 1.5.241c1.44 0 2.164-.465 2.164-1.4 0-.261-.077-.495-.233-.706a2.196 2.196 0 0 0-.636-.558c-.27-.16-.777-.408-1.521-.742-1.032-.466-1.71-.901-2.037-1.301a2.11 2.11 0 0 1-.492-1.375c0-.778.342-1.395 1.029-1.848C95.404.366 96.27.14 97.314.14c1.022 0 1.772.11 2.251.338v1.316c-.621-.39-1.402-.586-2.35-.586-.63 0-1.142.12-1.538.36-.394.24-.594.571-.594.999 0 .38.138.687.412.926.274.237.87.561 1.786.97 1.008.44 1.715.88 2.116 1.318.404.44.605.933.605 1.481 0 .82-.327 1.452-.984 1.892-.654.44-1.563.657-2.728.657-.406 0-.882-.052-1.423-.155-.542-.101-.939-.229-1.185-.383V7.895Z"/>
  </g>
  <defs>
    <clipPath id="a">
      <path fill="#fff" d="M0 0h100v10H0z"/>
    </clipPath>
  </defs>
</svg>
